<svg xmlns="http://www.w3.org/2000/svg" viewBox="0 0 320 200" preserveAspectRatio="xMidYMid slice">
  <defs>
    <linearGradient id="g" x1="0" y1="0" x2="1" y2="1">
      <stop offset="0%" stop-color="#f4ebd4"/>
      <stop offset="50%" stop-color="#faf3e3"/>
      <stop offset="100%" stop-color="#f0e3c4"/>
    </linearGradient>
  </defs>
  <rect width="320" height="200" fill="url(#g)"/>
  <!-- soft sun + horizon -->
  <circle cx="220" cy="80" r="32" fill="#ffd9a0" opacity="0.7"/>
  <path d="M0 130 L70 110 L120 125 L180 100 L240 120 L320 105 L320 200 L0 200 Z" fill="#cbdcb5"/>
  <path d="M0 145 L60 132 L130 142 L210 128 L300 138 L320 132 L320 200 L0 200 Z" fill="#a9c596" opacity="0.85"/>
  <!-- mini Osaka castle silhouette -->
  <g transform="translate(60 110) scale(0.7)" fill="#3a2f24" opacity="0.55">
    <rect x="-10" y="20" width="40" height="6"/>
    <path d="M-6 4 L-6 20 L26 20 L26 4 Z M-12 0 L10 -6 L32 0 L32 4 L-12 4 Z"/>
    <path d="M0 -10 L0 -2 L20 -2 L20 -10 Z M-4 -14 L10 -22 L24 -14 L-4 -14 Z"/>
  </g>
  <text x="50%" y="178" text-anchor="middle" font-family="Space Grotesk,system-ui,sans-serif" font-size="11" letter-spacing="2" fill="#6b5a47" opacity="0.8">PHOTO PENDING</text>
</svg>
